<svg xmlns="http://www.w3.org/2000/svg" viewBox="0 0 376.06668 323.29571">
  <defs>
    <style>
      .cls-1 {
        fill: #1d1d1b;
      }

      .cls-2 {
        fill: #30929a;
      }

      .cls-2, .cls-3 {
        fill-rule: evenodd;
      }

      .cls-3 {
        fill: #67c4d1;
      }
    </style>
  </defs>
  <title>logo</title>
  <g id="Слой_2" data-name="Слой 2">
    <g id="Слой_1-2" data-name="Слой 1">
      <g>
        <path class="cls-1" d="M80.05435,193.32467,40.49942,243.86044.94449,193.32467H0v83.3604H8.61957V216.46725l31.40756,40.26332h.94455l31.526-40.26332v60.21782h8.61936v-83.3604Zm38.49219,25.62207a20.9914,20.9914,0,0,0-16.41226,7.43866v-6.61208H93.515v56.91175h8.61933V245.98585c0-12.5161,6.37625-18.53774,15.11371-18.53774a19.9035,19.9035,0,0,1,3.89627.354l1.65313-8.61929c-1.417-.11821-2.83377-.23613-4.25085-.23613Zm13.69678,49.70918a4.78241,4.78241,0,0,0,0,9.5641,4.78241,4.78241,0,1,0,0-9.5641ZM176.0488,194.033h-25.386v8.50138h24.79578c20.54464,0,33.17871,14.75918,33.17871,32.82466,0,18.18339-12.1615,32.70671-33.29691,32.70671H159.16422V237.83849h-8.50141v38.84658h25.386c25.38592,0,41.6803-18.53775,41.6803-41.326s-15.94007-41.326-41.6803-41.326Zm76.98443,24.91373c-16.1762,0-27.03912,13.10625-27.03912,29.40036,0,16.17619,11.57132,29.16453,27.7475,29.16453a25.92822,25.92822,0,0,0,23.14258-13.10626l-7.43866-3.66038a17.76042,17.76042,0,0,1-15.70392,8.50139c-10.62653,0-17.71115-7.67479-18.89179-17.94728H278.6553c0-.94449.11817-2.00721.11817-2.952,0-16.29411-9.44611-29.40036-25.74024-29.40036Zm0,8.26524c9.80017,0,15.34958,6.61209,17.00275,15.58574H235.20383c1.77112-8.97365,8.14734-15.58574,17.8294-15.58574Zm60.21778-8.26524a21.237,21.237,0,0,0-16.53022,7.43866v-6.61208h-8.5014v56.91175h8.5014V245.98585c0-12.5161,6.37592-18.53774,15.11347-18.53774,9.20972,0,14.523,5.43148,14.523,17.82907v31.40789h8.50146V245.27718c0-20.899-10.39068-26.33044-21.60766-26.33044Zm58.447,47.702c-3.54218,2.952-8.26526,2.83381-10.1543,1.29885-2.0072-1.77109-2.24365-4.48668-2.24365-9.20976V228.39262H371.3439v-8.6193H359.30008V204.896l-8.61926,2.36127v12.51609h-8.73743v8.6193h8.73743v30.5813c0,13.10626,4.60486,17.71115,12.04358,18.53771,3.66034.47226,9.32794-1.06269,13.34228-4.36875L371.698,266.6487Z"/>
        <path class="cls-1" d="M48.59348,323.29571a8.329,8.329,0,0,0,6.59762-3.12692l-1.59476-1.46947a6.57049,6.57049,0,0,1-4.87786,2.43893,6.04008,6.04008,0,0,1-5.94083-6.285c0-3.53339,2.50128-6.31616,5.78461-6.31616a6.604,6.604,0,0,1,4.97143,2.37628l1.53214-1.626a8.4328,8.4328,0,1,0-6.47235,14.00826Zm21.04327-.37532h2.43893V308.881h5.78467v-2.12627H63.85208V308.881h5.78467v14.03943Zm25.67111.37532a8.44255,8.44255,0,1,0-8.37979-8.44243,8.29563,8.29563,0,0,0,8.37979,8.44243Zm.06238-2.15746a6.06472,6.06472,0,0,1-5.972-6.285c0-3.47073,2.40747-6.31616,5.90967-6.31616a6.11747,6.11747,0,0,1,6.00348,6.31616,5.98191,5.98191,0,0,1-5.9411,6.285Zm19.32349,1.78214h2.34509V310.60075l5.90964,8.19213,5.97235-8.19213v12.31964h2.4389v-16.1657h-2.3139l-6.03467,8.50507-6.03467-8.50507h-2.28274v16.1657Zm33.42556.34385a7.08757,7.08757,0,0,0,5.81583-2.75157v2.40772h2.37631v-9.88072a6.39421,6.39421,0,0,0-1.68832-4.75284,7.17525,7.17525,0,0,0-5.222-1.78215,13.24885,13.24885,0,0,0-5.87823,1.37565l.71914,1.97008a11.24344,11.24344,0,0,1,4.90909-1.1571c3.03305,0,4.784,1.50094,4.784,4.37754v.50032a16.93582,16.93582,0,0,0-4.94049-.688c-4.0961,0-6.91031,1.8136-6.91031,5.28432,0,3.37694,3.00192,5.09672,6.035,5.09672Zm.46888-1.93864c-2.18863,0-4.06495-1.188-4.06495-3.22043,0-2.00125,1.71979-3.31454,4.72171-3.31454a16.6243,16.6243,0,0,1,4.72141.688v1.50093c0,2.56395-2.40778,4.34607-5.37817,4.34607Zm23.2948,1.59479h2.4389V308.881h5.78467v-2.12627H166.0983V308.881H171.883v14.03943Zm25.67114.37532a8.44255,8.44255,0,1,0-8.37979-8.44243,8.29563,8.29563,0,0,0,8.37979,8.44243Zm.06235-2.15746a6.06471,6.06471,0,0,1-5.972-6.285c0-3.47073,2.40741-6.31616,5.90967-6.31616a6.11751,6.11751,0,0,1,6.00351,6.31616,5.982,5.982,0,0,1-5.94116,6.285Zm18.542,2.03218c3.0643,0,5.34674-1.313,5.34674-13.91417v-.3753h6.75412v14.03943h2.40747v-16.1657h-11.444v1.34448c0,12.13228-1.626,12.97644-3.56458,12.97644a5.36406,5.36406,0,0,1-1.15713-.21884l-.28119,2.06362a9.97617,9.97617,0,0,0,1.9386.25Zm33.83209.12528a8.44255,8.44255,0,1,0-8.37976-8.44243,8.29562,8.29562,0,0,0,8.37976,8.44243Zm.06238-2.15746a6.06472,6.06472,0,0,1-5.972-6.285c0-3.47073,2.40747-6.31616,5.90967-6.31616a6.11751,6.11751,0,0,1,6.00351,6.31616,5.98194,5.98194,0,0,1-5.94113,6.285Zm19.32348,1.78214h2.40775V308.881h8.56741v-2.12627H269.37637v16.1657Zm21.04328,0h2.3139l9.63074-12.78878v12.78878h2.40747v-16.1657h-2.34515l-9.59919,12.78879V306.75469h-2.40777v16.1657Zm24.85815,0h2.9704c1.501-1.93862,2.9707-3.90842,4.47137-5.87848H327.191v5.87848h2.40771v-16.1657h-7.5982c-3.84577,0-6.09735,2.06391-6.09735,5.03433,0,2.6263,1.90741,4.3149,4.31518,4.87786l-4.94049,6.25351Zm6.91022-7.91092c-2.25122,0-3.8772-1.15682-3.8772-3.12662,0-1.84479,1.40717-3.00189,3.81488-3.00189H327.191v6.12851Z"/>
        <path class="cls-2" d="M169.34286,140.22408c-13.88214-1.851-33.89669-48.01153-45.00256-71.38-11.10614-23.36856-20.24649-57.72815-3.587-66.75171,16.65951-9.02319,58.53912,13.65054,73.5783,20.361,15.03894,6.71045,36.09388,15.27136,35.63154,24.52619-.46232,9.25515-50.20838,92.55065-60.62031,93.24456Z"/>
        <path class="cls-3" d="M201.04889,140.22408c13.88211-1.851,33.89676-48.01153,45.0029-71.38,11.10583-23.36856,20.24615-57.72815,3.58667-66.75171-16.65921-9.02319-58.53913,13.65054-73.57807,20.361-15.03918,6.71045-36.09411,15.27136-35.63177,24.52619.46258,9.25515,50.20837,92.55065,60.62027,93.24456Z"/>
      </g>
    </g>
  </g>
</svg>
